<svg xmlns="http://www.w3.org/2000/svg" width="300" height="180" viewBox="0 0 300 180" role="img" aria-label="Gezeichneter Platzhalter Strandbild Bordeira North">
  <defs>
    <linearGradient id="sky" x1="0" x2="0" y1="0" y2="1"><stop stop-color="#bfe9ff"/><stop offset="1" stop-color="#f7fdff"/></linearGradient>
    <linearGradient id="sea" x1="0" x2="1"><stop stop-color="#0ea5e9"/><stop offset="1" stop-color="#0369a1"/></linearGradient>
  </defs>
  <rect width="300" height="180" rx="18" fill="url(#sky)"/>
  <circle cx="246" cy="34" r="18" fill="#fde68a" opacity=".95"/>
  <path d="M0 78 C55 68 96 88 148 76 C204 63 238 76 300 66 L300 126 L0 126 Z" fill="url(#sea)"/>
  <path d="M0 116 C48 106 75 125 121 116 C176 105 222 121 300 108 L300 135 L0 135 Z" fill="#eff6ff" opacity=".92"/>
  <path d="M0 132 C54 122 102 142 153 130 C203 118 240 135 300 126 L300 180 L0 180 Z" fill="#f2d6a2"/>
  
  <path d="M25 151 C74 140 119 158 166 147 C205 138 246 148 280 141" fill="none" stroke="#0f766e" stroke-width="3" opacity=".55" stroke-linecap="round"/>
  <text x="16" y="29" font-family="Inter, Arial, sans-serif" font-size="16" font-weight="700" fill="#083344">Bordeira North</text>
  <text x="16" y="49" font-family="Inter, Arial, sans-serif" font-size="10" fill="#075985">Praia da Bordeira</text>
  <text x="16" y="168" font-family="Inter, Arial, sans-serif" font-size="9" fill="#334155">Gezeichneter Platzhalter – keine ungeklärte Netzbild-Lizenz verwendet</text>
</svg>